<svg xmlns="http://www.w3.org/2000/svg" viewBox="0 0 100 100">
<!-- SVG created with Arrow, by QuiverAI (https://quiver.ai) -->
  <style type="text/css">.cls-0 {fill:#063363;}
.cls-1 {fill:#056DD0;}
.cls-2 {fill:#053D78;}
.cls-3 {fill:#7192BD;}</style>
  <path class="cls-0" d="m84.4 2.2c0.8 3.2 3.2 14.4 4.3 20.8 0.8 7.2-0.7 14.3-1.6 18.7 1.7-2.7 2.8-8.3 3.1-11.7l0.7 7.4c-2.3 5-6.2 10.7-11.4 15.4l-3.9 3.5c9.2-7.2 11.5-19.1 8.2-35.7 0.9 6.3-0.9 10.2-3.2 14.4-0.3 3.5-0.9 7.6-3.4 12.3-1.7 1.8-5.2 4.7-8.5 6.3 4.7-4.5 6.9-9.2 10.4-16.9 2.6-5.2 3.8-10.9 1.3-16.7l-1.1-1.2 0.6 0.8c0.4 1.5 0.3 5.7 0.1 6.9-0.9-2.5-3.3-6.1-4.6-8.1l5-4.3v-0.2l-4.6-10.4 11.3 18.4c-0.3-6.7-1.5-15.4-2.7-19.7z"/>
  <path class="cls-0" d="m69 15.9 4.5 2.1 0.1 0.1h0.1l0.1 0.1-0.2-0.1h0.1-0.1l0.1 0.1h0.1-0.1l-0.2-0.2 0.2 0.1h-0.1l0.1 0.1h0.1l-0.2-0.1 0.1 0.1h0.1c1.3 1.5 4.1 5.7 5.4 10.1-1.5-3.9-4.3-7.2-5.6-8.3-2.1-1.3-4.8-3.1-5.2-3.9z"/>
  <path class="cls-0" d="m50.5 0.6c4.4 1.1 9.6 2.7 14 5.9 2 1.4 4.3 3.1 5.2 4.4l-1.3 5c-2.3-1.7-4.8-2.9-13.2-5.6-4.5-2.5-7.1-4.7-15.2-4.6l-3.6-1-3.4-0.2c3.7 1.4 6.9 3.3 10.4 6.6-0.5-1.5-1.9-2.8-1.9-2.8l5.8 4.8c-6.2-1.2-11.5-0.6-18.9 2.5l-7.2 3.5c6.7-2.2 12.9-4.2 19.9-4.6 7.2-0.3 11.9 0.4 19.9 5.4-3.6-3.3-7.1-5.3-11-6.3l-2.8-2.5c8.5 0 16.2 3.5 22.7 12.5-4.8-7.6-13.8-13.2-25.3-13.9 11.9 0.3 19 1.9 25.5 8.4l-1.5-2.1 1.1-5c-3.2-2.6-8.7-5.2-14.1-5.9-3.6-1.2-7-0.6-12.2-0.4 5.5 0.5 7.5 1 13.1 4.2l1.2 0.1 10.2 4.5c-3-2.4-9-4.6-10.1-4.4h-0.2l-1 0.2c-1.7-0.4-5.2-3.7-11.7-3.5l5.6-5.2z"/>
  <path class="cls-1" d="m34.1 5 0.3-0.1 1.6-0.1c1.4 0.1 5.7 3.3 7.4 6.3-1.8-1.5-5-4.1-9.3-6.1z"/>
  <path class="cls-0" d="m64.8 6.3 5 1.2 1.8 3.9c-1.8-1.7-6-4-6.8-5.1z"/>
  <path class="cls-0" d="m71.8 12 1.3 0.6-0.1 0.3c-0.4-0.3-1.3-0.8-2-0.5l0.5 0.5-0.1 0.5c0.3-0.5 0.1-1.3 2.5 0.5 0.8 0.3 0.2 0.8-1 0-1-0.5-2.3 0.2-2.8 1l4 2.2 5.2-4.1c-1.2-1.4-5.2-3.8-7.5-4.6l1.3 4.5-1.3-0.9z"/>
  <path class="cls-1" d="m69 15.9c0.9 1.6 1.7 3 2.4 4-2-2.2-5-4.9-9.4-7.1 2.6 0.8 5.4 2.6 7 3.1z"/>
  <path class="cls-2" d="m22 23.9c-0.3 0.1 0.1 1.1 0.1 1.1 0.6 0 1.4-0.8 3.4-1.9 2.4-1.5 6.1-3.2 8.8-4.3-4.1 0.3-8.7 2.4-12.3 5.1z"/>
  <path class="cls-1" d="m32 22.7 1.1 0.9c4-2.4 7.5-4 14.4-4 8.7 0 16.9 5.4 19.5 12.8-0.6-3.7-6.3-11.9-17-13.6-7.3-0.6-12.5 1.4-18 3.9z"/>
  <path class="cls-1" d="m26.6 25.7 4.3-1-1.1-0.9c-1.1 0.6-2.3 1.3-3.2 1.9z"/>
  <path class="cls-3" d="m32.5 24.5-3.5-2.9 3.6 2.9z"/>
  <path class="cls-3" d="m13.6 30c12.5-4.3 19.5-5.5 27.9-6.4-8.5 0.9-16.1 3-27.9 6.4z"/>
  <path class="cls-1" d="m37.3 25.5c-5.2 0.6-10.7 1.9-21.1 5-0.5 0.2-8.8 8.5-12.8 16.4l8.6-6.8c-3.3 4.5-5.9 9.6-8.2 17.5 4.6-9.2 8.8-13.2 13.8-21.5-4.6 7.3-7 12.5-7.5 22.9 1.5-8.6 3.4-12.3 6.9-17.6l-1.9 5.3 11.5-10.7c2.1-3 6.3-8.1 10.7-10.5z"/>
  <path class="cls-2" d="m13.6 41.6c4.3-5.2 7-8.5 12.6-11.6l-2.1-2.1-7.9 2.6c-2.7 2.5-8.7 8.7-12.8 16.4l8.6-6.8 0.1-0.1-0.2 0.2 0.2-0.2-0.1 0.1c4.4-6.5 8.7-10.6 13-12.2l3.1-0.4c-4.7 3.2-8 9.9-10.1 16.7l1.5-1.2c1.1-5.6 4-11.8 8.6-15.5 2.3-0.6 5.8-1.5 9.2-1.9-3.2 1.4-7.4 5.5-10.7 10.3l-7.1 6.8-4.4 4 1.9-5.3c-1.5 2-4.1 6.1-4.9 8.7l1.5-8.5z"/>
  <path class="cls-1" d="m35.4 31c4.2-2.8 8.1-3.6 14-2.8-3.3-1-7.7-1-8.7-0.7 2.7-1.4 7.4-1.1 9.9-0.5 3.5 1 7.5 3.2 9.6 8-1.6-3-4.5-6.6-9.5-8.5-1.2-0.4-2.3-0.6-3.6-0.8 5.9-0.8 11.6 2.3 14.5 6.4 2.6 3.9 3.5 10.1-0.2 15.5 2-2 3.1-5.9 3.2-7.7 0 3.3-0.6 5.7-3.2 8.8 2.2-1.7 4.1-6.2 3.3-10.8-0.7-5.5-6.5-12.3-14.1-13-3.5-0.3-10.5 0-15.4 4.3-4.1 3.5-8.1 9.2-8.1 18.4 0 5.1 1.5 9.3 3 12.3v0.1l0.1 0.1 0.8-1 1.9 2.6-1.5 2.5 1.5 5.5 3.3-6.3c-1-2.3-3.6-6-4.1-7.8-1-4-1.9-21 10.1-25.6 2.2-1.1 5.7-1.4 6.7-1.4-3.5-0.6-8.5-0.1-13.5 2.4z"/>
  <path class="cls-1" d="m34 46.1c0.4-5.5 5.2-14.1 10.4-15.7 7-2.7 14.2 1.2 15.1 8l0.1 2.2c-0.4-5.2-3.4-8.7-9-10.5-6.9-1.1-10.5 1.8-14.5 8.4-1.1 2.1-1.7 4.6-2.1 7.6z"/>
  <path class="cls-1" d="m40.6 38c2.4-3.5 5.8-5.5 9-5.8 4.8-0.2 7.9 4.2 7.6 8.4-0.5-6.5-5.6-8.2-8.5-7.2-3.3 0.5-6 2.1-8.1 4.6z"/>
  <path class="cls-0" d="m43.5 37.4c3-2.4 8-4.7 11 0.7-1.5-3-5.9-3.9-8.6-1.4-3 2.3-4.5 5-4 9.2 0.8 4.7 5 10.2 14.8 10.1l-3.6-0.6c-7.7-0.5-10.5-7.3-11.7-9.5-0.2-2.9 0.5-5.4 4.5-8.3 2-2 5.6-2.4 6.8-0.7-2.1-0.8-4.8-0.8-6.3 0.3-4 3.2-2 9.3 2.1 11.7 2.5 1.5 7.4 2.2 11.2 0l1.5-1.3c-3.6 3-8 3.8-11.1 2.4-5.2-1.6-7-8.9-3.5-11.3 0.8-0.6 1.4-0.7 2.1-0.7-3.1-0.4-6.3 4.4-2.1 9.6-1.2-1.1-2.1-3.6-2-5.6-2.2 4.2 1.8 10.7 8.6 10.9 6.2 0.2 11.9-2.7 14.9-9.3l0.6-5.9-0.6 2.3c-1 4.6-3.6 9.5-9.2 12 5.1-1 9-5.3 9.7-12.4 0.9-3.6 0.3-6.9-0.5-9.1l0.5 7.6-2-10.6-1.5-5.3v2.8l0.3 1.5 1.1 2.4c-1.9-3.5-5.9-6.7-9.4-8.2 4.3 3.2 9 6.3 10 11.7l0.4 5.6 0.1-3.8c0-1.6-0.1-3.1-0.9-5.2l-1.6-6.8 0.9 0.8c1.2 1.4 3.1 3.5 3.5 4.4 2.1 5.1 1.2 11.7-1.6 17.7-1.3 3-3.3 5.3-6.9 6.8 5.9-2 8.1-8 8-18.3-0.1 5.3-1.1 15.3-8.1 18.3-2 1-4 1.5-5.4 1.6l2.7 0.2h-2.7v0.2l2.6 0.2-2.6-0.2v0.2c3.9 0.5 8.9-1.2 12.6-4.7-3.4 2.6-7.2 4.6-12.6 4.7-3 0-8 0.3-11.4-4.2-1.5-2.5-1.5-5.8 0.1-8.8-1.7 4.5 0.8 8.8 2.9 9.5-3-2.2-3.9-6.7-2.5-8.6l0.3-0.9 0.2-0.7 0.3-0.5c0.7-1.2 2.1-2 3.3-1.9-2.8-0.4-6.3 4.4-2.1 9.6 2 2.4 6.6 2.9 10 0.8 2.3-1.3 5-4 5.5-7.4-0.7 4.6-5 7.9-8.6 8-5.6 0.2-7.5-2.9-6.9-3.5 1.1 2.4 5 3.4 7.9 2.5 1.9-0.4 3.5-1.6 4.4-3.8l-2.3 2.2-1.2 0.7-2.9 1-2.4-0.2c4.5 0.5 7.8-2.3 7.3-7.4 0 3.5-1.7 6-4.5 6.1 3.5 0.1 5.2-4.7 3.6-7.9l-1.1-2-1.7-1.7c-3.1-2.4-7.8-1.6-11.5 1.4l-1.6 1.6z"/>
  <path class="cls-3" d="m35.7 44.7c0.9-6.6 6.4-13.7 12-14.6-5.2 1.1-10 5.8-12 14.6z"/>
  <path class="cls-3" d="m38.4 44.6c0.2-4 1.7-6.5 3.2-7.5-1.5 0.9-3 4.1-3.2 7.5z"/>
  <path class="cls-3" d="m56 52.2c5.2-1 8.6-4.6 8.7-12.2-0.3 6.4-3.1 10.9-8.7 12.2z"/>
  <path class="cls-1" d="m44.1 50.2c2.1 3 6 4.4 9.6 5.2-3.6-0.2-7.6-1.9-9.6-5.2z"/>
  <path class="cls-3" d="m38.6 45.9c0.8 6.6 6 11.7 12.8 12.7 3.2 0.8 8.2 0.4 10-0.2v0.2c-1.8 0.5-5.4 1.1-8.4 0.5-6.8-0.9-12.9-4.5-14.4-13.2z"/>
  <path class="cls-3" d="m51.9 23.9c6.7 1.3 12.7 6.2 12.8 15.1-0.1-6.5-4.1-13.1-12.8-15.1z"/>
  <path class="cls-1" d="m34.9 37.1c-1.4 3-3.5 9-2.8 16.4-1.6-5.9-0.5-11.3 2-16.1l0.8-0.3z"/>
  <path class="cls-1" d="m61.1 52c5.8-2.1 8.6-8.3 10.8-13-2 6.4-4.5 10.5-10.8 13z"/>
  <path class="cls-3" d="m71.9 45.1c2-3.1 5.7-10.1 7.6-16.6-0.9 4.4-3.6 12.4-6.8 17.1l-0.8-0.5z"/>
  <path class="cls-1" d="m68.6 39.1c0.5-1.6 0.4-4.9 0.3-5.5l-0.3 5.5z"/>
  <path class="cls-1" d="m58.4 30.5c1.2 1.9 3.1 4 2.7 8.5l-0.9 3.6c0.9-2.2 1.2-8.2-1.8-12.1z"/>
  <path class="cls-1" d="m77.4 36.6c0.1-4.6-2-11.5-7.3-17.1l3.5 3.6c2.5 3.8 3.9 7.9 3.8 11.8v1.7z"/>
  <path class="cls-1" d="m68 59 3.1-1.6c3.8-1.8 6.4-3.7 8.9-7.9-2.6 3.1-7.5 6.5-16 8.9l4 0.6z"/>
  <path class="cls-3" d="m46.9 62.5c4.2 0.5 10.5 1.6 18.8-0.6l0.8-0.5c-3.9 1.5-9.8 2.5-19.6 1.1z"/>
  <path class="cls-3" d="m53.4 63.9c3.1-0.2 6.5-1 9-1.5l4.1-1c-2.1 1.3-7.1 2.5-13.1 2.5z"/>
  <path class="cls-1" d="m61 57.6c7.9-2.4 13.9-4.5 18.7-10.9-2 3.9-7.7 8.7-18.6 12.3l0.3-0.5-0.4-0.9z"/>
  <path class="cls-1" d="m60.1 56.1"/>
  <path class="cls-1" d="m60.1 72.9c-3.5 0-6.7-1.3-11.7-4.9-2.3-1.4-5.5-1.4-6.7-2.1-1.1-0.7-5-2.5-5-2.5 4.9 1 10.5 0.7 12 1.5 2.9 1.7 6.2 4.5 10.9 7.2l0.5 0.8z"/>
  <path class="cls-1" d="m60.4 73.1 4.7 2.3c1.1 0.1 2.3 0.5 4.9-0.2 5.4-1.5 14.5-5.1 18.6-8.3l2.5-2.5c-4.9 2.5-13 5.3-22.6 8 3.7-0.7 7.4-2.8 10.4-6.3-3.8 2-14.4 3.8-18.5 3.6l-0.8-0.1c0 1-0.1 2-0.5 2.8l1.3 0.7z"/>
  <path class="cls-0" d="m50.9 66.1c2.5 2 8.2 2.6 11.7 2.5 3.8-0.2 12.3-2.1 14.8-3 2-0.7 4.8-2 5-2.6l1.3-2.1c-4.3 2.6-7.8 3.7-13.6 5 4.8-1.5 12-5.5 17.4-8.8l1.2-3-5.1 3.6c-0.9 0.7-0.5-1.2-0.7-1.2-2.5 1.2-5.3 2.6-6.8 3.7l2.8-1c-3.4 3-11.8 6.7-26 6.9h-2z"/>
  <path class="cls-1" d="m71.4 59.2 4.3-4c-5.5 3.8-12 7-21.1 7.2-11.2 0-18-5.8-19.5-17.8 0 9.5 6.1 16.6 15.5 17.9 8.5 1.4 14.5 0 20.8-3.3z"/>
  <path class="cls-2" d="m26.1 38.5-11.7 10.5c-0.9 2.4-1.7 8.6-1.3 10.9l0.4 1.2 3.6 6.4-3.4-5.4-0.3 0.9v0.6l0.1 0.5 3.6 4.5c1 1.5 2.1 4.8 2.1 4.8l7.3-1.8 0.2-0.2 3.5-8.9c0.7-1.4-0.5-2.1 0-2.6l-1.2 1.8c-3-4.6-4.4-10.3-3.2-17.7-1.4 6.1-1.7 10.4-1.6 17.4-0.8-2.8-2.1-10.9 1.9-22.9z"/>
  <path class="cls-0" d="m11.7 64.4c0.7 5.2 1.4 9.2 3.4 13.8 0.8 0.2 0.4-1.3 0.4-1.3-0.8-3.8-2.1-11.4-2.1-13.3l5.4 10.5-5.2 7.4-0.1-2.9-1.1-4-1.6 5.5c0-4.1 0.6-11.6 0.9-15.7z"/>
  <path class="cls-2" d="m18.7 74.1-5.2 11.4 0.2 7.9 6.8-9.8c0.2-0.5 1.9 0.8 1.2 1.5l-8 11.5v2.3h17.3l4.9 0.7v-0.1c-2.5-2.6-5.8-5.9-7.2-8.4 2.4 2.8 4.9 5.5 7.4 8l1.6-0.2c-8.3-8.3-13.6-14.4-17.7-23.5l-0.9-2 1.1 3.2-1.5-2.5z"/>
  <path class="cls-0" d="m36.4 70.4 3.6 5.6h6.2c-3.5-1.4-7.1-3.3-9.8-5.6z"/>
  <path class="cls-0" d="m37.2 64.6-5.3 8.5c-2.7 4.9-5.3 10.9 0.3 18.4l0.4 0.4c-1.7-4.4-3.6-12 0.4-16 0.9 4 3.6 7.6 8.1 13v-1c-3.5-3.8-7.7-8.9-8.4-12.8l0.2-0.6 4.3-9.9z"/>
  <path class="cls-1" d="m31.1 78.6c1.5 4.5 5.5 9.5 10.1 14.1-3.1-4.1-7.7-12.2-8.8-16.7l-1.3 2.6z"/>
  <path class="cls-1" d="m72.6 58.4 9.9-4.4c3.6-1.3 3.5-0.6 4 0.2 0.9-0.3 5.7-4.6 9.2-12.3l-4.3 4.6-0.8 0.6-0.2 0.1-0.2 0.2 0.2-0.5-0.4 0.1v-0.1h-0.1l0.1 0.1-0.1-0.1 0.1 0.1-0.1-0.1 0.1 0.1v-0.1h-0.1-0.2 0.2 0.1-0.1c-0.5 0 0-0.5 0.5-1.4 2.1-3.6 5.5-11.8 6.2-22.6-3.4 10.5-10.2 25.5-17.5 31.6l-6.5 3.9z"/>
  <path class="cls-1" d="m71.1 65.2c3.4-0.6 11.4-4.6 15.8-7.6-3.3 3.3-9.2 7-13.9 7.6h-1.9z"/>
  <path class="cls-0" d="m59.9 75.9c3.5 0.7 7.5 1.6 13.1 2.1l-9.4-3.1-4.2-1.9c-5.9 0-13.3-2-17.2-7.1l-3.5 4.1c6.4 4 12.4 6 21.2 5.9z"/>
  <path class="cls-1" d="m72 44.1"/>
  <path class="cls-1" d="m68.6 39"/>
  <path class="cls-1" d="m72.1 44.7"/>
  <path class="cls-3" d="m54.1 55.4c3 0.2 5.8 0 8.9-1.5-2.6 1.1-5.9 1.8-8.9 1.5z"/>
  <path class="cls-1" d="m51 55.9c-1.9-0.4-4.9-1.4-6.9-4.8 2 2.8 4.3 4.3 6.9 4.8z"/>
  <path class="cls-1" d="m66.6 50.1"/>
  <path class="cls-3" d="m72.1 44.1"/>
</svg>