<?xml version="1.0" encoding="utf-8"?>
<!-- Generator: Adobe Illustrator 23.1.0, SVG Export Plug-In . SVG Version: 6.00 Build 0)  -->
<svg version="1.1" id="Layer_1" xmlns="http://www.w3.org/2000/svg" xmlns:xlink="http://www.w3.org/1999/xlink" x="0px" y="0px"
	 viewBox="0 0 288 288" style="enable-background:new 0 0 288 288;" xml:space="preserve">
<style type="text/css">
	.st0{fill:#0129FA;}
	.st1{fill:#FFFFFF;}
	.st2{font-family:'Corbel-Bold';}
	.st3{font-size:8.6288px;}
</style>
<g>
	<path class="st0" d="M84.9,153.6v7.8c-0.3,1.5-0.9,2.8-1.6,4.1c-2.8,5.1-8.3,8.9-14.8,9.7H25.4v-18.7c0-2,0.8-3.9,2.1-5.4
		c1.8-2,4.5-3.3,7.6-3.3c1.6,0,3.1,0.3,4.4,0.9c1.3,0.6,2.4,1.4,3.2,2.4c1.3,1.5,2.1,3.4,2.1,5.4c0,1.7-0.5,3.2-1.4,4.6
		c-1,1.4-2.4,2.6-4.1,3.3c1.7,0.3,3.5,0.5,5.3,0.5c0.6,0,1.2,0,1.8-0.1c0.7-0.1,1.4-0.1,2.1-0.2c8.3-1.2,15.4-6.4,19.1-13.5
		c1.7-3.3,2.7-6.9,2.7-10.8c6.3,1.2,11.6,5.3,13.9,10.8C84.4,151.9,84.7,152.8,84.9,153.6z"/>
	<path class="st0" d="M25.4,134.6v-7.8c0.3-1.5,0.9-2.8,1.6-4.1c2.8-5.1,8.3-8.9,14.8-9.7h43.1v18.7c0,2-0.8,3.9-2.1,5.4
		c-1.8,2-4.5,3.3-7.6,3.3c-1.6,0-3.1-0.3-4.4-0.9c-1.3-0.6-2.4-1.4-3.2-2.4c-1.3-1.5-2.1-3.4-2.1-5.4c0-1.7,0.5-3.2,1.4-4.6
		c1-1.4,2.4-2.6,4.1-3.3c-1.7-0.3-3.4-0.5-5.3-0.5c-0.6,0-1.2,0-1.8,0.1c-0.7,0.1-1.4,0.1-2.1,0.2c-8.3,1.2-15.4,6.4-19.1,13.5
		c-1.7,3.3-2.7,6.9-2.7,10.8c-6.3-1.2-11.6-5.3-13.9-10.8C25.8,136.2,25.6,135.4,25.4,134.6z"/>
</g>
<g>
	<path class="st1" d="M93.7,154v-1.4h26.6c1.4,0,2.3-0.9,2.3-2.4s-1-2.5-2.3-2.5h-15.6c-6.6,0-11.4-4.4-11.4-10.7
		c0-6.4,4.8-10.8,11.4-10.8h17.9c5,0,9.1,4.1,9.1,9.1l0,0H105c-1.4,0-2.3,0.8-2.3,2.4c0,1.5,0.9,2.4,2.3,2.4h15.6
		c6.7,0,11.4,4.4,11.4,10.8c0,6.6-4.8,10.9-11.4,10.9h-19.2C97.1,161.8,93.7,158.3,93.7,154z"/>
	<path class="st1" d="M136.5,161.8v-35.5h9.6v35.5H136.5z"/>
	<path class="st1" d="M179.9,161.8l-7.1-9h-8.4v-8.3h12.2c2.6,0,4.5-1.8,4.5-4.5c0-2.7-1.9-4.5-4.5-4.5h-15v26.4h-9.5v-35.5h24.5
		c8.1,0,14,5.4,14,13.3c0,5.4-2.8,9.7-7.3,11.8l9,10.4L179.9,161.8L179.9,161.8z"/>
	<path class="st1" d="M195.6,161.8v-35.5h29.5c2.5,0,4.6,2,4.6,4.6l0,0c0,2.5-2,4.6-4.6,4.6h-20v17.2h20c2.5,0,4.6,2.1,4.6,4.6l0,0
		c0,2.5-2.1,4.6-4.6,4.6L195.6,161.8L195.6,161.8z M208.4,140.2L208.4,140.2h17.2c2.1,0,3.8,1.7,3.8,3.8l0,0c0,2.1-1.7,3.8-3.8,3.8
		H216C211.8,147.8,208.4,144.4,208.4,140.2z"/>
	<path class="st1" d="M268.4,161.8c-2.6,0-3.6-0.9-5.5-3l-18.3-19.8v22.8h-9.3v-31.5c0-2.7,1.5-4,4.4-4h2.3c2.9,0,4.1,0.8,5.8,2.6
		l16.8,18.1v-20.7h9.2v31.9c0,2.4-1.2,3.7-3.5,3.7L268.4,161.8L268.4,161.8z"/>
</g>
<text transform="matrix(0.9556 0 0 1 94.2285 170.4132)" class="st1 st2 st3">Situation Intelligence &amp; Rapid Emergency Network</text>
</svg>
