<?xml version="1.0" encoding="utf-8"?>
<!-- Generator: Adobe Illustrator 23.1.0, SVG Export Plug-In . SVG Version: 6.00 Build 0)  -->
<svg version="1.1" id="Layer_1" xmlns="http://www.w3.org/2000/svg" xmlns:xlink="http://www.w3.org/1999/xlink" x="0px" y="0px"
	 viewBox="0 0 288 288" style="enable-background:new 0 0 288 288;" xml:space="preserve">
<style type="text/css">
	.st0{fill:#0129FA;}
	.st1{fill:#FFFFFF;}
	.st2{font-family:'Corbel-Bold';}
	.st3{font-size:8.6288px;}
</style>
<g>
	<path class="st0" d="M84.87,153.6v7.84c-0.34,1.46-0.9,2.84-1.62,4.14c-2.83,5.14-8.3,8.9-14.83,9.66H25.36v-18.7
		c0-2.04,0.78-3.91,2.09-5.4c1.77-2.02,4.52-3.31,7.6-3.31c1.58,0,3.07,0.34,4.38,0.94c1.26,0.57,2.36,1.39,3.21,2.37
		c1.31,1.48,2.09,3.36,2.09,5.4c0,1.67-0.52,3.23-1.43,4.55c-0.97,1.42-2.38,2.57-4.06,3.3c1.7,0.34,3.45,0.52,5.25,0.52
		c0.59,0,1.17-0.02,1.76-0.06c0.72-0.05,1.43-0.13,2.13-0.23c8.35-1.23,15.38-6.39,19.06-13.48c1.69-3.26,2.67-6.93,2.74-10.82
		c6.33,1.2,11.56,5.3,13.87,10.82C84.39,151.93,84.67,152.75,84.87,153.6z"/>
	<path class="st0" d="M25.36,134.55v-7.84c0.34-1.46,0.9-2.84,1.62-4.14c2.83-5.14,8.3-8.9,14.83-9.66h43.06v18.7
		c0,2.04-0.78,3.91-2.09,5.4c-1.77,2.02-4.52,3.31-7.6,3.31c-1.58,0-3.07-0.34-4.38-0.94c-1.26-0.57-2.36-1.39-3.21-2.37
		c-1.31-1.48-2.09-3.36-2.09-5.4c0-1.67,0.52-3.23,1.43-4.55c0.97-1.42,2.38-2.57,4.06-3.3c-1.7-0.34-3.45-0.52-5.25-0.52
		c-0.59,0-1.17,0.02-1.76,0.06c-0.72,0.05-1.43,0.13-2.13,0.23c-8.35,1.23-15.38,6.39-19.06,13.48c-1.69,3.26-2.67,6.93-2.74,10.82
		c-6.33-1.2-11.56-5.3-13.87-10.82C25.84,136.22,25.57,135.39,25.36,134.55z"/>
</g>
<g>
	<path class="st1" d="M93.67,154v-1.43h26.56c1.37,0,2.35-0.87,2.35-2.4s-0.98-2.46-2.35-2.46h-15.63
		c-6.61,0-11.37-4.37-11.37-10.71c0-6.45,4.75-10.76,11.37-10.76h17.87c5.04,0,9.12,4.09,9.12,9.12v0h-26.56
		c-1.37,0-2.29,0.82-2.29,2.35c0,1.48,0.93,2.4,2.29,2.4h15.63c6.67,0,11.42,4.43,11.42,10.76c0,6.56-4.75,10.87-11.42,10.87h-19.24
		C97.14,161.76,93.67,158.28,93.67,154z"/>
	<path class="st1" d="M136.51,161.83v-35.52h9.56v35.52H136.51z"/>
	<path class="st1" d="M179.85,161.83l-7.1-9.02h-8.42v-8.31h12.24c2.62,0,4.48-1.8,4.48-4.54c0-2.73-1.86-4.54-4.48-4.54H161.6
		v26.39h-9.51v-35.52h24.48c8.14,0,14.04,5.35,14.04,13.28c0,5.41-2.84,9.67-7.27,11.8l8.96,10.44H179.85z"/>
	<path class="st1" d="M195.64,161.83v-35.52h29.53c2.52,0,4.56,2.04,4.56,4.56l0,0c0,2.52-2.04,4.56-4.56,4.56h-19.97v17.21h20
		c2.53,0,4.59,2.05,4.59,4.59l0,0c0,2.53-2.05,4.59-4.59,4.59H195.64z M208.37,140.19L208.37,140.19h17.19c2.1,0,3.8,1.7,3.8,3.8
		l0,0c0,2.1-1.7,3.8-3.8,3.8h-9.59C211.77,147.79,208.37,144.39,208.37,140.19z"/>
	<path class="st1" d="M268.43,161.83c-2.57,0-3.61-0.93-5.46-3l-18.31-19.78v22.79h-9.29v-31.47c0-2.68,1.48-4.04,4.43-4.04h2.29
		c2.95,0,4.15,0.82,5.79,2.62l16.77,18.09v-20.71h9.23v31.86c0,2.4-1.2,3.66-3.55,3.66H268.43z"/>
</g>
<text transform="matrix(0.9556 0 0 1 94.2285 170.4132)" class="st1 st2 st3">Situation Intelligence &amp; Rapid Emergency Network</text>
</svg>
