<svg xmlns="http://www.w3.org/2000/svg" viewBox="0 0 59.51 62.33">
  <path fill="#0129fa" d="M59.51,40.69v7.84a16.06,16.06,0,0,1-1.62,4.14,19.4,19.4,0,0,1-14.83,9.66H0V43.63a8.14,8.14,0,0,1,2.09-5.4,10.08,10.08,0,0,1,7.6-3.31,10.51,10.51,0,0,1,4.38.94,9.36,9.36,0,0,1,3.21,2.37,8.12,8.12,0,0,1,2.09,5.4,8,8,0,0,1-1.43,4.55,9.46,9.46,0,0,1-4.06,3.3,26.71,26.71,0,0,0,5.25.52c.59,0,1.17,0,1.76-.06s1.43-.13,2.13-.23A25.68,25.68,0,0,0,42.08,38.23a24.39,24.39,0,0,0,2.74-10.82A18.64,18.64,0,0,1,58.69,38.23,14.79,14.79,0,0,1,59.51,40.69Z"/>
  <path fill="#0129fa" d="M0,21.64V13.8A16.06,16.06,0,0,1,1.62,9.66,19.4,19.4,0,0,1,16.45,0H59.51V18.7a8.14,8.14,0,0,1-2.09,5.4,10.08,10.08,0,0,1-7.6,3.31,10.51,10.51,0,0,1-4.38-.94,9.36,9.36,0,0,1-3.21-2.37,8.12,8.12,0,0,1-2.09-5.4,8,8,0,0,1,1.43-4.55,9.46,9.46,0,0,1,4.06-3.3,26.71,26.71,0,0,0-5.25-.52c-.59,0-1.17,0-1.76.06s-1.43.13-2.13.23A25.68,25.68,0,0,0,17.43,24.1a24.39,24.39,0,0,0-2.74,10.82A18.64,18.64,0,0,1,.82,24.1,16.13,16.13,0,0,1,0,21.64Z"/>
</svg>
